<svg width="186" height="56" viewBox="0 0 186 56" fill="none" xmlns="http://www.w3.org/2000/svg">
<path d="M17 45C21.5087 45 25.8327 43.2089 29.0208 40.0208C32.2089 36.8327 34 32.5087 34 28C34 23.4913 32.2089 19.1673 29.0208 15.9792C25.8327 12.7911 21.5087 11 17 11L17 28L17 45Z" fill="#B7F2A3"/>
<path d="M41.9868 40V17.65H46.4868L54.8568 28.75H52.7568L60.8868 17.65H65.3868V40H60.7368V22.78L62.5968 23.2L53.9868 34.3H53.3868L45.0768 23.2L46.6368 22.78V40H41.9868ZM74.0901 40.36C72.9101 40.36 71.8901 40.17 71.0301 39.79C70.1701 39.41 69.5101 38.87 69.0501 38.17C68.5901 37.45 68.3601 36.6 68.3601 35.62C68.3601 34.7 68.5701 33.89 68.9901 33.19C69.4101 32.47 70.0501 31.87 70.9101 31.39C71.7901 30.91 72.8801 30.57 74.1801 30.37L79.1901 29.56V32.86L74.9901 33.61C74.3501 33.73 73.8601 33.94 73.5201 34.24C73.1801 34.52 73.0101 34.93 73.0101 35.47C73.0101 35.97 73.2001 36.36 73.5801 36.64C73.9601 36.92 74.4301 37.06 74.9901 37.06C75.7301 37.06 76.3801 36.9 76.9401 36.58C77.5001 36.26 77.9301 35.83 78.2301 35.29C78.5501 34.73 78.7101 34.12 78.7101 33.46V29.2C78.7101 28.58 78.4601 28.06 77.9601 27.64C77.4801 27.22 76.8201 27.01 75.9801 27.01C75.1801 27.01 74.4701 27.23 73.8501 27.67C73.2501 28.11 72.8101 28.69 72.5301 29.41L68.9301 27.7C69.2501 26.78 69.7601 25.99 70.4601 25.33C71.1601 24.67 72.0001 24.16 72.9801 23.8C73.9601 23.44 75.0301 23.26 76.1901 23.26C77.5701 23.26 78.7901 23.51 79.8501 24.01C80.9101 24.51 81.7301 25.21 82.3101 26.11C82.9101 26.99 83.2101 28.02 83.2101 29.2V40H79.0101V37.36L80.0301 37.18C79.5501 37.9 79.0201 38.5 78.4401 38.98C77.8601 39.44 77.2101 39.78 76.4901 40C75.7701 40.24 74.9701 40.36 74.0901 40.36ZM86.5104 40V23.62H90.7104V27.55L90.4104 26.98C90.7704 25.6 91.3604 24.67 92.1804 24.19C93.0204 23.69 94.0104 23.44 95.1504 23.44H96.1104V27.34H94.7004C93.6004 27.34 92.7104 27.68 92.0304 28.36C91.3504 29.02 91.0104 29.96 91.0104 31.18V40H86.5104ZM98.0826 40V17.29H102.583V31.84L100.903 31.3L108.133 23.62H113.683L107.743 30.22L113.653 40H108.553L103.603 31.69L106.213 31.03L101.203 36.49L102.583 33.88V40H98.0826ZM115.991 40V17.65H131.291V21.7H120.641V27.37H129.791V31.42H120.641V40H115.991ZM141.105 40.36C139.485 40.36 138.005 39.99 136.665 39.25C135.345 38.51 134.285 37.5 133.485 36.22C132.705 34.92 132.315 33.45 132.315 31.81C132.315 30.15 132.705 28.68 133.485 27.4C134.285 26.12 135.345 25.11 136.665 24.37C138.005 23.63 139.485 23.26 141.105 23.26C142.725 23.26 144.195 23.63 145.515 24.37C146.835 25.11 147.885 26.12 148.665 27.4C149.465 28.68 149.865 30.15 149.865 31.81C149.865 33.45 149.465 34.92 148.665 36.22C147.885 37.5 146.835 38.51 145.515 39.25C144.195 39.99 142.725 40.36 141.105 40.36ZM141.105 36.31C141.925 36.31 142.635 36.12 143.235 35.74C143.855 35.36 144.335 34.83 144.675 34.15C145.035 33.47 145.215 32.69 145.215 31.81C145.215 30.93 145.035 30.16 144.675 29.5C144.335 28.82 143.855 28.29 143.235 27.91C142.635 27.51 141.925 27.31 141.105 27.31C140.285 27.31 139.565 27.51 138.945 27.91C138.325 28.29 137.835 28.82 137.475 29.5C137.135 30.16 136.965 30.93 136.965 31.81C136.965 32.69 137.135 33.47 137.475 34.15C137.835 34.83 138.325 35.36 138.945 35.74C139.565 36.12 140.285 36.31 141.105 36.31ZM152.516 40V17.29H157.016V40H152.516ZM160.309 40V23.62H164.809V40H160.309ZM160.309 22.15V17.65H164.809V22.15H160.309ZM176.232 40.36C174.612 40.36 173.132 39.99 171.792 39.25C170.472 38.51 169.412 37.5 168.612 36.22C167.832 34.92 167.442 33.45 167.442 31.81C167.442 30.15 167.832 28.68 168.612 27.4C169.412 26.12 170.472 25.11 171.792 24.37C173.132 23.63 174.612 23.26 176.232 23.26C177.852 23.26 179.322 23.63 180.642 24.37C181.962 25.11 183.012 26.12 183.792 27.4C184.592 28.68 184.992 30.15 184.992 31.81C184.992 33.45 184.592 34.92 183.792 36.22C183.012 37.5 181.962 38.51 180.642 39.25C179.322 39.99 177.852 40.36 176.232 40.36ZM176.232 36.31C177.052 36.31 177.762 36.12 178.362 35.74C178.982 35.36 179.462 34.83 179.802 34.15C180.162 33.47 180.342 32.69 180.342 31.81C180.342 30.93 180.162 30.16 179.802 29.5C179.462 28.82 178.982 28.29 178.362 27.91C177.762 27.51 177.052 27.31 176.232 27.31C175.412 27.31 174.692 27.51 174.072 27.91C173.452 28.29 172.962 28.82 172.602 29.5C172.262 30.16 172.092 30.93 172.092 31.81C172.092 32.69 172.262 33.47 172.602 34.15C172.962 34.83 173.452 35.36 174.072 35.74C174.692 36.12 175.412 36.31 176.232 36.31Z" fill="#F8FAFC"/>
</svg>
