<svg width="480" height="106" viewBox="0 0 480 106" fill="none" xmlns="http://www.w3.org/2000/svg">
<path d="M1.09104e-05 102.739C13.1917 102.739 25.843 97.4989 35.171 88.1709C44.4989 78.843 49.7393 66.1917 49.7393 53C49.7393 39.8083 44.4989 27.157 35.171 17.829C25.8431 8.50111 13.1917 3.26074 2.28882e-05 3.26074L1.30846e-05 53L1.09104e-05 102.739Z" fill="#B7F2A3"/>
<path d="M73.2788 89V23.6075H86.445L110.934 56.0843H104.79L128.577 23.6075H141.743V89H128.138V38.6171L133.58 39.8459L108.389 72.3227H106.633L82.3196 39.8459L86.8839 38.6171V89H73.2788ZM167.208 90.0533C163.755 90.0533 160.771 89.4974 158.255 88.3856C155.738 87.2738 153.807 85.6938 152.462 83.6457C151.116 81.5391 150.443 79.0522 150.443 76.1848C150.443 73.4931 151.057 71.1231 152.286 69.075C153.515 66.9684 155.387 65.2129 157.904 63.8085C160.478 62.4041 163.667 61.4094 167.471 60.8242L182.13 58.4543V68.1095L169.841 70.3039C167.968 70.655 166.535 71.2694 165.54 72.1472C164.545 72.9664 164.048 74.166 164.048 75.746C164.048 77.2089 164.604 78.35 165.716 79.1692C166.827 79.9884 168.203 80.398 169.841 80.398C172.006 80.398 173.908 79.9299 175.546 78.9936C177.185 78.0574 178.443 76.7993 179.321 75.2193C180.257 73.5808 180.725 71.7961 180.725 69.865V57.401C180.725 55.5869 179.994 54.0655 178.531 52.8366C177.126 51.6078 175.195 50.9934 172.738 50.9934C170.397 50.9934 168.32 51.6371 166.506 52.9244C164.75 54.2118 163.463 55.9088 162.643 58.0154L152.11 53.0122C153.047 50.3204 154.539 48.009 156.587 46.078C158.635 44.1469 161.093 42.6547 163.96 41.6014C166.827 40.5481 169.958 40.0215 173.352 40.0215C177.39 40.0215 180.959 40.7529 184.061 42.2159C187.162 43.6788 189.561 45.7269 191.258 48.3601C193.014 50.9349 193.891 53.9485 193.891 57.401V89H181.603V81.2758L184.587 80.7491C183.183 82.8557 181.632 84.6112 179.935 86.0156C178.238 87.3615 176.336 88.3563 174.23 89C172.123 89.7022 169.782 90.0533 167.208 90.0533ZM203.547 89V41.0748H215.836V52.5733L214.958 50.9056C216.011 46.8679 217.738 44.1469 220.137 42.7425C222.595 41.2796 225.491 40.5481 228.827 40.5481H231.635V51.9589H227.51C224.292 51.9589 221.688 52.9537 219.698 54.9433C217.708 56.8743 216.714 59.6246 216.714 63.1941V89H203.547ZM237.406 89V22.5542H250.572V65.1252L245.657 63.5452L266.811 41.0748H283.049L265.669 60.3853L282.961 89H268.039L253.557 64.6863L261.193 62.7552L246.535 78.7303L250.572 71.0939V89H237.406ZM294.63 89V52.4855H286.554V41.0748H294.63V40.3726C294.63 36.569 295.361 33.3506 296.824 30.7173C298.346 28.0841 300.511 26.0652 303.32 24.6608C306.128 23.2564 309.522 22.5542 313.501 22.5542C314.262 22.5542 315.081 22.6127 315.959 22.7298C316.837 22.7883 317.568 22.8761 318.154 22.9931V34.2283C317.568 34.1113 317.042 34.0528 316.574 34.0528C316.164 33.9943 315.725 33.965 315.257 33.965C312.799 33.965 310.927 34.5209 309.639 35.6327C308.411 36.686 307.796 38.266 307.796 40.3726V41.0748H318.066V52.4855H307.796V89H294.63ZM347.768 90.0533C343.028 90.0533 338.698 88.9707 334.777 86.8056C330.915 84.6405 327.814 81.6854 325.473 77.9403C323.191 74.1367 322.05 69.8358 322.05 65.0374C322.05 60.1805 323.191 55.8795 325.473 52.1344C327.814 48.3894 330.915 45.4343 334.777 43.2692C338.698 41.104 343.028 40.0215 347.768 40.0215C352.508 40.0215 356.809 41.104 360.671 43.2692C364.533 45.4343 367.605 48.3894 369.887 52.1344C372.228 55.8795 373.398 60.1805 373.398 65.0374C373.398 69.8358 372.228 74.1367 369.887 77.9403C367.605 81.6854 364.533 84.6405 360.671 86.8056C356.809 88.9707 352.508 90.0533 347.768 90.0533ZM347.768 78.2037C350.167 78.2037 352.245 77.6478 354 76.5359C355.814 75.4241 357.218 73.8734 358.213 71.8839C359.267 69.8943 359.793 67.6121 359.793 65.0374C359.793 62.4627 359.267 60.2098 358.213 58.2787C357.218 56.2891 355.814 54.7384 354 53.6266C352.245 52.4563 350.167 51.8711 347.768 51.8711C345.369 51.8711 343.262 52.4563 341.448 53.6266C339.634 54.7384 338.201 56.2891 337.147 58.2787C336.152 60.2098 335.655 62.4627 335.655 65.0374C335.655 67.6121 336.152 69.8943 337.147 71.8839C338.201 73.8734 339.634 75.4241 341.448 76.5359C343.262 77.6478 345.369 78.2037 347.768 78.2037ZM381.155 89V22.5542H394.321V89H381.155ZM403.956 89V41.0748H417.122V89H403.956ZM403.956 36.7738V23.6075H417.122V36.7738H403.956ZM450.544 90.0533C445.804 90.0533 441.474 88.9707 437.553 86.8056C433.691 84.6405 430.59 81.6854 428.249 77.9403C425.967 74.1367 424.826 69.8358 424.826 65.0374C424.826 60.1805 425.967 55.8795 428.249 52.1344C430.59 48.3894 433.691 45.4343 437.553 43.2692C441.474 41.104 445.804 40.0215 450.544 40.0215C455.284 40.0215 459.585 41.104 463.447 43.2692C467.309 45.4343 470.381 48.3894 472.663 52.1344C475.004 55.8795 476.174 60.1805 476.174 65.0374C476.174 69.8358 475.004 74.1367 472.663 77.9403C470.381 81.6854 467.309 84.6405 463.447 86.8056C459.585 88.9707 455.284 90.0533 450.544 90.0533ZM450.544 78.2037C452.943 78.2037 455.02 77.6478 456.776 76.5359C458.59 75.4241 459.994 73.8734 460.989 71.8839C462.042 69.8943 462.569 67.6121 462.569 65.0374C462.569 62.4627 462.042 60.2098 460.989 58.2787C459.994 56.2891 458.59 54.7384 456.776 53.6266C455.02 52.4563 452.943 51.8711 450.544 51.8711C448.145 51.8711 446.038 52.4563 444.224 53.6266C442.41 54.7384 440.976 56.2891 439.923 58.2787C438.928 60.2098 438.431 62.4627 438.431 65.0374C438.431 67.6121 438.928 69.8943 439.923 71.8839C440.976 73.8734 442.41 75.4241 444.224 76.5359C446.038 77.6478 448.145 78.2037 450.544 78.2037Z" fill="#F8FAFC"/>
</svg>
